Coordinates
version=1
nRows=20
nColumns=38
inDegrees=no

Units are S.I. units (second, meters, Newtons, ...)
If the header above contains a line with 'inDegrees', this indicates whether rotational values are in degrees (yes) or radians (no).

endheader
time	pelvis_tilt	pelvis_list	pelvis_rotation	pelvis_tx	pelvis_ty	pelvis_tz	hip_flexion_r	hip_adduction_r	hip_rotation_r	knee_angle_r	ankle_angle_r	subtalar_angle_r	mtp_angle_r	hip_flexion_l	hip_adduction_l	hip_rotation_l	knee_angle_l	ankle_angle_l	subtalar_angle_l	mtp_angle_l	lumbar_extension	lumbar_bending	lumbar_rotation	arm_flex_r	arm_add_r	arm_rot_r	elbow_flex_r	pro_sup_r	wrist_flex_r	wrist_dev_r	arm_flex_l	arm_add_l	arm_rot_l	elbow_flex_l	pro_sup_l	wrist_flex_l	wrist_dev_l
0.49	-0.0510414	1.36489	1.57979	0.64987	0.219675	1.01037	-0.0548205	-0.0784062	-0.136916	0.53533	-0.409619	0	0	0.512848	-0.0147905	-0.2216	0.225405	-0.276101	0	0	0.0885727	-0.0729413	0.0403357	0.0471048	-0.205901	0.175252	0.597557	1.5708	0	0	-0.228083	-0.278194	0.346268	0.444125	0.81736	0	0
0.5	-0.106133	1.35967	1.63795	0.648543	0.233867	1.01118	-0.0269683	-0.0953291	-0.119874	0.586898	-0.459234	0	0	0.514562	-0.000957269	-0.210705	0.252906	-0.254441	0	0	0.0917372	-0.0887644	0.0333845	0.0469608	-0.191936	0.161475	0.55606	1.5708	0	0	-0.224231	-0.285049	0.343668	0.447966	0.817573	0	0
0.51	-0.156203	1.35631	1.68939	0.647284	0.247738	1.01219	0.00148442	-0.110524	-0.101385	0.640096	-0.512126	0	0	0.512809	0.0119536	-0.20389	0.277303	-0.233839	0	0	0.091305	-0.102626	0.0281863	0.0469086	-0.179992	0.14726	0.517663	1.5708	0	0	-0.218508	-0.292039	0.342604	0.45344	0.819521	0	0
0.52	-0.198632	1.3557	1.73074	0.646158	0.261439	1.01339	0.0290091	-0.123106	-0.082529	0.692638	-0.568677	0	0	0.506535	0.0220834	-0.202774	0.298263	-0.214519	0	0	0.0871959	-0.113005	0.0254414	0.0465324	-0.171098	0.134797	0.483269	1.5708	0	0	-0.211	-0.298557	0.343161	0.459799	0.82437	0	0
0.53	-0.232881	1.35816	1.76112	0.645282	0.275041	1.01488	0.0548571	-0.132651	-0.0640387	0.743136	-0.620244	0	0	0.494707	0.0286072	-0.207941	0.314351	-0.198188	0	0	0.0800505	-0.119526	0.0252558	0.0462428	-0.164964	0.126108	0.451371	1.5708	0	0	-0.20154	-0.304129	0.345962	0.465413	0.830897	0	0
0.54	-0.256476	1.36294	1.77872	0.644616	0.288602	1.01672	0.079389	-0.13881	-0.046811	0.790772	-0.660558	0	0	0.477836	0.0316155	-0.216761	0.324519	-0.183236	0	0	0.07175	-0.12184	0.0265451	0.0466658	-0.160666	0.121814	0.419759	1.5708	0	0	-0.191097	-0.308456	0.349943	0.469948	0.839593	0	0
0.55	-0.265968	1.36847	1.78102	0.644024	0.30209	1.01876	0.104068	-0.141315	-0.030283	0.836234	-0.674357	0	0	0.458095	0.0317173	-0.226099	0.328694	-0.170951	0	0	0.0647123	-0.119683	0.0281829	0.0479104	-0.158958	0.127288	0.388248	1.5708	0	0	-0.180828	-0.31145	0.35445	0.473897	0.850236	0	0
0.56	-0.260016	1.37413	1.76785	0.643375	0.315557	1.0209	0.128588	-0.140311	-0.0149141	0.878421	-0.666188	0	0	0.436957	0.0295121	-0.235169	0.328074	-0.159571	0	0	0.0596023	-0.113453	0.028359	0.05	-0.158904	0.140719	0.356823	1.5708	0	0	-0.172108	-0.313195	0.357204	0.478679	0.864183	0	0
0.57	-0.243813	1.38053	1.74562	0.642581	0.329091	1.02319	0.151254	-0.13716	-0.00172527	0.917591	-0.635362	0	0	0.413795	0.0262913	-0.244004	0.323339	-0.149543	0	0	0.0550881	-0.104744	0.0257029	0.0523455	-0.160302	0.163196	0.326826	1.57075	0	0	-0.165969	-0.313982	0.35463	0.485812	0.883407	0	0
0.58	-0.217744	1.38593	1.71353	0.641814	0.342439	1.02555	0.175171	-0.133007	0.00708452	0.954879	-0.589653	0	0	0.390812	0.0217208	-0.252862	0.315348	-0.142432	0	0	0.0524023	-0.0941998	0.0220632	0.0540804	-0.163233	0.195478	0.300047	1.56993	0	0	-0.161768	-0.313558	0.34521	0.494706	0.909176	0	0
0.59	-0.185057	1.38983	1.67576	0.640992	0.355536	1.02795	0.200349	-0.128373	0.0124175	0.989204	-0.539348	0	0	0.369668	0.0162141	-0.261452	0.307043	-0.138094	0	0	0.05149	-0.0826405	0.0176258	0.0541946	-0.167576	0.232034	0.278164	1.57006	0	0	-0.158565	-0.312656	0.332202	0.505476	0.939123	0	0
0.6	-0.150196	1.39313	1.64113	0.639789	0.368556	1.03043	0.223606	-0.124279	0.0129188	1.018	-0.483275	0	0	0.3498	0.0115964	-0.267955	0.29894	-0.136793	0	0	0.0504428	-0.0715214	0.00776908	0.0528644	-0.17259	0.271509	0.261296	1.56971	0	0	-0.157222	-0.311184	0.311445	0.519225	0.97494	0	0
0.61	-0.114126	1.39462	1.60815	0.638387	0.381412	1.03291	0.247247	-0.121287	0.00818341	1.04076	-0.432552	0	0	0.332194	0.00771286	-0.271054	0.291217	-0.137437	0	0	0.0510269	-0.0607759	-0.0039104	0.0490558	-0.178273	0.309661	0.249796	1.57054	0	0	-0.155872	-0.309597	0.289731	0.53387	1.01252	0	0
0.62	-0.079747	1.39678	1.5799	0.636776	0.394245	1.03555	0.268108	-0.119585	-0.000351675	1.05689	-0.389838	0	0	0.313612	0.00556463	-0.269192	0.28331	-0.139108	0	0	0.0505738	-0.0508781	-0.0172901	0.043501	-0.183996	0.34099	0.24249	1.5708	0	0	-0.154086	-0.309209	0.271444	0.55041	1.04596	0	0
0.63	-0.0459315	1.39883	1.55387	0.63517	0.406971	1.03825	0.287775	-0.118643	-0.0118794	1.06713	-0.353329	0	0	0.295242	0.00413641	-0.265467	0.275845	-0.141474	0	0	0.0498969	-0.0418838	-0.0314787	0.0371979	-0.18904	0.36427	0.237527	1.5708	0	0	-0.152736	-0.310249	0.254864	0.570048	1.07395	0	0
0.64	-0.0150378	1.40048	1.5295	0.633717	0.419586	1.04091	0.307443	-0.117814	-0.0221737	1.07237	-0.319478	0	0	0.276984	0.00264971	-0.263736	0.268494	-0.144504	0	0	0.0492024	-0.0339076	-0.0443885	0.0310072	-0.193988	0.383784	0.234214	1.5708	0	0	-0.152888	-0.311424	0.236018	0.592662	1.10118	0	0
0.65	0.0160431	1.40198	1.50541	0.632265	0.432144	1.04351	0.326116	-0.116903	-0.0322311	1.07176	-0.295947	0	0	0.258785	0.00114244	-0.261153	0.261054	-0.147493	0	0	0.0487824	-0.0263116	-0.0567105	0.0240153	-0.198323	0.393422	0.23206	1.5708	0	0	-0.152182	-0.314064	0.224744	0.615526	1.12369	0	0
0.66	0.0495565	1.40354	1.47959	0.630831	0.444616	1.04604	0.343402	-0.115605	-0.0432159	1.06607	-0.272393	0	0	0.240472	-0.000819609	-0.256684	0.253189	-0.151367	0	0	0.0472019	-0.0188935	-0.0706125	0.0177865	-0.201843	0.397231	0.23083	1.5708	0	0	-0.152921	-0.316531	0.209645	0.640917	1.14497	0	0
0.67	0.0859315	1.40507	1.45065	0.629477	0.457	1.04844	0.359541	-0.113504	-0.0542787	1.05547	-0.24998	0	0	0.221893	-0.00358081	-0.251827	0.244495	-0.155791	0	0	0.0446557	-0.0112506	-0.0846358	0.0122582	-0.204919	0.394856	0.23054	1.5708	0	0	-0.154434	-0.318761	0.192594	0.667937	1.16396	0	0
0.68	0.122964	1.40587	1.41999	0.628264	0.469245	1.05066	0.375676	-0.110807	-0.0653931	1.04034	-0.228852	0	0	0.203761	-0.00701364	-0.248147	0.235208	-0.16057	0	0	0.0421677	-0.00345213	-0.0972178	0.00712356	-0.207883	0.388127	0.231063	1.56876	0	0	-0.155849	-0.320902	0.175956	0.695549	1.18128	0	0
